<svg version="1.1" id="Layer_1" xmlns="http://www.w3.org/2000/svg" xmlns:xlink="http://www.w3.org/1999/xlink" x="0px" y="0px"
	 width="100%" viewBox="0 0 784 528" enable-background="new 0 0 784 528" xml:space="preserve">
<path fill="#ffffff" opacity="1.000000" stroke="none" 
	d="
M266.760132,461.334167 
	C260.412384,457.294525 254.301788,453.575562 248.728424,449.027344 
	C245.694061,446.551086 245.489136,444.457367 248.291702,441.666077 
	C257.737976,432.257843 266.641907,422.351227 274.874329,411.857971 
	C277.162811,408.941010 279.201874,410.352539 281.226501,412.024536 
	C289.548676,418.897400 299.118134,423.455536 309.106354,427.297485 
	C332.732239,436.385132 355.584839,434.265045 377.709869,422.517303 
	C390.738129,415.599670 402.389984,406.799713 412.714233,396.222931 
	C415.063171,393.816589 415.634705,391.810669 413.635132,388.852997 
	C407.200195,379.334839 401.231049,369.532806 396.998016,358.787750 
	C390.794312,343.040314 386.304749,326.849487 383.844635,310.067841 
	C381.261963,292.450043 381.916931,274.528870 378.651642,256.995575 
	C378.081207,253.932465 377.212708,250.865860 376.027618,247.987930 
	C373.155823,241.013870 368.258850,239.342545 361.554169,243.085693 
	C353.037811,247.840286 347.131561,255.406326 341.586212,263.077515 
	C327.505676,282.555725 316.456421,303.802917 306.243958,325.495392 
	C294.394409,350.665100 281.784729,375.428680 265.195160,397.874695 
	C251.382629,416.563263 236.266861,434.003296 215.820755,445.990540 
	C199.136078,455.772461 181.298538,461.057343 161.978928,458.781647 
	C144.781723,456.755951 130.093018,448.857300 117.622093,436.802734 
	C103.836411,423.477295 94.715279,407.291168 87.492668,389.710022 
	C82.360229,377.216797 78.207809,364.447601 75.324852,351.331940 
	C73.346710,342.332642 71.639404,333.243622 70.484238,324.029449 
	C68.688843,309.708527 67.204834,295.406403 67.089890,280.978333 
	C66.987946,268.182007 69.030128,255.582001 70.402718,242.900864 
	C71.839813,229.623764 75.004837,216.803375 78.765465,204.155533 
	C85.184898,182.565506 95.017166,162.593567 110.946632,146.280441 
	C124.750626,132.143967 141.794189,123.779060 161.589752,124.049721 
	C187.850784,124.408791 207.618149,136.401367 219.048584,160.774811 
	C226.282333,176.199554 229.271484,192.499176 229.304077,209.408920 
	C229.338104,227.072525 229.751694,244.760330 228.951813,262.390045 
	C228.552734,271.185852 227.812195,279.987793 228.158386,288.774475 
	C228.635666,300.888062 228.564941,313.079987 230.603348,325.062378 
	C231.572083,330.756958 230.499390,335.217499 226.938919,339.822021 
	C218.993927,350.096680 211.273376,360.541382 202.566849,370.197510 
	C198.590622,374.607422 198.025848,374.398010 195.428070,369.253021 
	C185.786469,350.157410 181.524841,329.770416 179.706909,308.580627 
	C177.548218,283.418945 179.377151,258.383575 180.609940,233.300095 
	C181.305984,219.137726 180.600235,204.993744 178.397034,190.995071 
	C177.794586,187.167191 175.986588,183.371399 174.053619,179.943298 
	C169.987747,172.732498 162.051239,170.800690 154.655365,174.944580 
	C144.004013,180.912521 137.246857,190.350098 132.596893,201.240555 
	C124.733215,219.657730 119.702118,238.796799 119.174789,258.983154 
	C118.966614,266.952026 117.959442,274.873657 118.008606,282.885284 
	C118.116776,300.515411 119.632286,317.939545 122.981438,335.282166 
	C126.139984,351.637726 130.642593,367.450348 138.102707,382.384918 
	C140.719818,387.624115 143.961029,392.379456 147.721848,396.862579 
	C160.852768,412.515411 173.420868,413.275452 190.472153,403.089203 
	C207.458420,392.941895 219.024506,377.409149 229.757797,361.198608 
	C244.137604,339.480713 254.552277,315.683533 266.156403,292.503937 
	C277.106964,270.629852 288.344757,248.864456 304.029663,229.905960 
	C315.520386,216.016998 327.895050,203.120407 345.303009,196.141632 
	C371.966309,185.452484 399.995056,192.810928 415.608826,217.940659 
	C422.228668,228.595016 425.482452,240.230682 427.423035,252.499954 
	C429.316559,264.471710 430.237915,276.505554 431.479980,288.533813 
	C433.435669,307.472717 436.443909,326.340637 444.062653,344.083954 
	C444.811676,345.828400 445.464874,347.442139 447.639282,348.044128 
	C451.142853,345.301300 452.731537,341.163177 454.765442,337.432709 
	C468.371429,312.476746 480.222931,286.670898 492.241791,260.922058 
	C510.952850,220.836212 529.851318,180.708969 557.922974,145.992279 
	C576.436890,123.095863 597.754883,103.418976 626.260376,93.407524 
	C654.771118,83.394249 681.926636,85.009621 705.805542,105.149261 
	C718.355225,115.733742 725.888550,129.961868 729.123718,146.043442 
	C733.260986,166.609131 732.805908,187.330872 730.085327,208.087387 
	C725.752869,241.141876 713.885559,271.639709 698.606323,300.910522 
	C679.612610,337.297058 655.259216,369.572113 623.168274,395.522583 
	C603.490295,411.435303 581.936584,424.169769 557.636047,431.826721 
	C542.034363,436.742737 526.047913,439.460907 509.682709,439.143097 
	C492.265259,438.804962 475.403931,435.519501 459.728668,427.599304 
	C455.546356,425.486176 452.958099,425.848999 449.499115,429.433716 
	C431.803741,447.772064 412.151428,463.577271 388.126068,472.996277 
	C376.820435,477.428558 365.065308,480.095795 352.911255,481.528687 
	C321.797516,485.196747 293.762909,476.425507 266.760132,461.334167 
M620.384766,152.905182 
	C602.858215,166.957458 589.737488,184.716309 578.130737,203.661102 
	C560.476135,232.477356 546.236084,263.062897 531.960693,293.629211 
	C518.182129,323.131744 504.202728,352.543427 487.241516,380.406097 
	C484.850372,384.334045 485.220367,386.865448 489.943695,388.116699 
	C491.063263,388.413269 492.127075,388.917908 493.244202,389.226532 
	C512.149780,394.449310 530.390442,391.195770 548.284363,384.643433 
	C571.227600,376.242096 590.337708,361.864929 607.465149,344.920776 
	C629.554688,323.067719 646.297302,297.355347 659.865356,269.463989 
	C670.663391,247.266815 678.491455,224.052887 682.341125,199.765137 
	C684.641479,185.252197 684.752319,170.419113 680.741455,155.841248 
	C677.035706,142.372269 665.519348,135.224640 651.963074,137.370270 
	C639.897339,139.279968 630.391113,145.605377 620.384766,152.905182 
z"/>
</svg>